<mxfile host="app.diagrams.net" modified="2024-02-22T09:35:42.394Z" agent="Mozilla/5.0 (Windows NT 10.0; Win64; x64) AppleWebKit/537.36 (KHTML, like Gecko) Chrome/121.0.0.0 Safari/537.36" version="23.1.5" etag="Iv3HfVbhaL6OrwPzv8v7" type="github">
  <diagram name="ページ1" id="Su6r0qtYC28WxU_b1RYl">
    <mxGraphModel>
      <root>
        <mxCell id="0" />
        <mxCell id="1" parent="0" />
      </root>
    </mxGraphModel>
  </diagram>
</mxfile>
